<?xml version="1.0"?><svg width="640" height="480" xmlns="http://www.w3.org/2000/svg">
 <title>Banner T</title>

 <g>
  <title>Layer 1</title>
  <g id="svg_1">
   <g id="g890">
    <g id="g886">
     <path fill="#ffffff" fill-rule="evenodd" stroke="black" stroke-width="3.75" id="path882" d="m12.657169,107.085876l-4.632019,108.143829c0,0 22.002098,16.223389 66.006336,27.037781c28.950081,-0.001862 64.848396,-9.013824 64.848396,-9.013824c0,0 -35.898315,-55.874329 -35.898315,-52.269501c0,3.604767 38.215454,-28.838348 40.531494,-32.443176c-52.110229,1.802429 -130.855892,-28.838348 -130.855892,-41.455109z" transform="rotate(-180, 75.7676, 174.676)"/>
     <path fill="#ffffff" fill-rule="evenodd" stroke="black" stroke-width="3.75" id="path883" d="m453.605682,204.704422c0,0 90.490875,13.271973 108.2659,10.322952c17.775146,-2.948975 35.549805,0 40.397644,-7.372452c4.847717,-7.373978 27.470886,-109.114105 27.470886,-109.114105c0,0 -74.332153,13.270454 -92.107117,13.270454c-17.775208,0 -84.027313,-7.372475 -84.027313,-7.372475c0,0 35.550079,42.76033 40.397827,42.76033c4.847595,0 -45.245544,60.455795 -40.397827,57.505295z" transform="rotate(-180, 541.512, 156.996)"/>
     <path fill="#000000" fill-rule="evenodd" stroke="black" stroke-width="3.75" id="path884" d="m463.28006,111.284233l15.182861,132.964561c0,0 39.709076,-12.246719 60.731537,-3.499069c16.35083,12.246674 24.526184,15.745789 24.526184,29.742035c0,13.998047 17.519104,-120.717804 17.519104,-120.717804c0,0 -29.19812,-43.738319 -50.220581,-43.738319c-21.022491,0 -63.067505,0 -67.739105,5.248596z" transform="rotate(-180, 522.26, 188.773)"/>
    </g>
    <path fill="#000000" fill-rule="evenodd" stroke="black" stroke-width="3.75" id="path885" d="m39.290771,276.353058c0,0 3.47403,-9.011963 24.318115,-21.628784c20.844116,-12.61673 57.900269,-14.419159 59.05835,-10.814331c1.157959,3.604767 20.844116,-102.736633 20.844116,-102.736633c0,0 -48.636353,-9.011963 -57.900391,-3.604797c-9.264046,5.407196 -41.688171,18.023956 -42.846161,25.233551c-1.15802,7.209595 -2.31601,117.155823 -3.47403,113.550995z" transform="rotate(-180, 91.4004, 206.139)"/>
   </g>
   <path transform="rotate(-180, 310.85, 243.168)" fill="#ffffff" fill-rule="evenodd" stroke="black" stroke-width="3.75" id="path881" d="m39.3022,218.834l17.370201,131.574997c0,0 61.374596,-68.490997 257.079613,-57.677002c201.493958,-9.011993 243.182007,21.628998 247.813965,25.234009c4.632019,3.604004 20.843994,-102.737 20.843994,-102.737c0,0 -16.211975,-52.268997 -262.867981,-79.305008c-203.809998,18.024002 -281.397892,54.072006 -280.239792,82.910004l0,0l0,0z"/>
  </g>
 </g>
</svg>